# AST/ASF file generated using VICON BodyLanguage
# -----------------------------------------------
:version 1.10
:name VICON
:units
  mass 1.0
  length 0.45
  angle deg
:documentation
   .ast/.asf automatically generated from VICON data using
   VICON BodyBuilder and BodyLanguage model FoxedUp or BRILLIANT.MOD
:root
   order TX TY TZ RX RY RZ
   axis XYZ
   position 0 0 0  
   orientation 0 0 0 
:bonedata
  begin
     id 1 
     name lhipjoint
     direction 0.643824 -0.71708 0.266994 
     length 2.52133 
     axis 0 0 0  XYZ
  end
  begin
     id 2 
     name lfemur
     direction 0.34202 -0.939693 0  
     length 7.51824  
     axis 0 0 20  XYZ
    dof rx ry rz
    limits (-160.0 20.0)
           (-70.0 70.0)
           (-60.0 70.0)
  end
  begin
     id 3 
     name ltibia
     direction 0.34202 -0.939693 0   
     length 7.3685   
     axis 0 0 20   XYZ
    dof rx
    limits (-10.0 170.0)
  end
  begin
     id 4 
     name lfoot
     direction 0.105419 -0.289636 0.951314   
     length 2.20972   
     axis -90 7.62852e-016 20   XYZ
    dof rx rz
    limits (-45.0 90.0)
           (-70.0 20.0)
  end
  begin
     id 5 
     name ltoes
     direction 1.53549e-011 -4.21833e-011 1   
     length 1.10139   
     axis -90 7.62852e-016 20   XYZ
    dof rx
    limits (-90.0 20.0)
  end
  begin
     id 6 
     name rhipjoint
     direction -0.608823 -0.743445 0.276811   
     length 2.43192  
     axis 0 0 0  XYZ 
  end
  begin
     id 7 
     name rfemur
     direction -0.34202 -0.939693 0   
     length 7.69715   
     axis 0 0 -20   XYZ
    dof rx ry rz
    limits (-160.0 20.0)
           (-70.0 70.0)
           (-70.0 60.0)
  end
  begin
     id 8 
     name rtibia
     direction -0.34202 -0.939693 0   
     length 7.44924   
     axis 0 0 -20   XYZ
    dof rx
    limits (-10.0 170.0)
 end
 begin
     id 9 
     name rfoot
     direction -0.103614 -0.284677 0.953007   
     length 2.22623  
     axis -90 -7.62852e-016 -20   XYZ
    dof rx rz
    limits (-45.0 90.0)
           (-20.0 70.0)
  end
  begin
     id 10 
     name rtoes
     direction -1.53537e-011 -4.22026e-011 1   
     length 1.11   
     axis -90 -7.62852e-016 -20   XYZ
    dof rx
    limits (-90.0 20.0)
  end
  begin
     id 11 
     name lowerback
     direction -0.0101212 0.99662 -0.0815298   
     length 2.08277   
     axis 0 0 0   XYZ
    dof rx ry rz
    limits (-20.0 45.0)
           (-30.0 30.0)
           (-30.0 30.0)
  end
  begin
     id 12 
     name upperback
     direction 0.024314 0.999591 -0.0150645   
     length 2.08524   
     axis 0 0 0   XYZ
    dof rx ry rz
    limits (-20.0 45.0)
           (-30.0 30.0)
           (-30.0 30.0)
  end
  begin
     id 13 
     name thorax
     direction 0.0285959 0.999323 0.0231357   
     length 2.09645   
     axis 0 0 0   XYZ
    dof rx ry rz
    limits (-20.0 45.0)
           (-30.0 30.0)
           (-30.0 30.0)
  end
  begin
     id 14 
     name lowerneck
     direction -0.065512 0.979301 0.191515   
     length 1.63798   
     axis 0 0 0   XYZ
    dof rx ry rz
    limits (-20.0 45.0)
           (-30.0 30.0)
           (-30.0 30.0)
  end
  begin
     id 15 
     name upperneck
     direction 0.0498479 0.98191 -0.182667   
     length 1.68731   
     axis 0 0 0   XYZ
    dof rx ry rz
    limits (-20.0 45.0)
           (-30.0 30.0)
           (-30.0 30.0)
  end
  begin
     id 16
     name head
     direction 0.0230358 0.996257 -0.0833175  
     length 1.69785  
     axis 0 0 0   XYZ
    dof rx ry rz
    limits (-20.0 45.0)
           (-30.0 30.0)
           (-30.0 30.0)
  end
  begin
     id 17 
     name lclavicle
     direction 0.967963 0.201165 -0.150269  
     length 3.63976  
     axis 0 0 0   XYZ
    dof ry rz
    limits (-20.0 10.0)
           (0.0 20.0)
  end
  begin
     id 18 
     name lhumerus
     direction 1 -4.48954e-011 -2.92837e-028   
     length 5.32462   
     axis 180 -30 -90   XYZ
    dof rx ry rz
    limits (-60.0 90.0)
           (-90.0 90.0)
           (-90.0 90.0)
  end
  begin
     id 19
     name lradius
     direction 1 -4.48958e-011 -6.39511e-027   
     length 3.48402   
     axis 180 -30 -90   XYZ
    dof rx
    limits (-10.0 170.0)
  end
  begin
     id 20
     name lwrist
     direction 1 -4.48975e-011 -1.1413e-026   
     length 1.74201   
     axis 6.88575e-015 90 90   XYZ
    dof ry
    limits (-180.0 0.0)
 end
  begin
     id 21 
     name lhand
     direction 1 -4.48899e-011 -2.28192e-026   
     length 0.572476   
     axis 1.45643e-014 90 90   XYZ
    dof rx rz
    limits (-90.0 90.0)
           (-45.0 45.0)
  end
  begin
     id 22 
     name lfingers
     direction 1 -4.49155e-011 -4.5684e-026   
     length 0.461545   
     axis 2.91283e-014 90 90   XYZ
    dof rx
    limits (0.0 90.0)
  end
  begin
     id 23
     name lthumb
     direction 0.707107 -6.34943e-011 0.707107   
     length 0.662688   
     axis -90 45 -2.25915e-014   XYZ
    dof rx rz
    limits (-45.0 45.0)
           (-45.0 45.0)
  end
  begin
     id 24 
     name rclavicle
     direction -0.964103 0.264019 -0.0282629   
     length 3.54491  
     axis 0 0 0   XYZ 
    dof ry rz
    limits (-10.0 20.0)
           (-20.0 0.0)
  end
  begin
     id 25 
     name rhumerus
     direction -1 -4.48964e-011 -2.45032e-027  
     length 5.33589   
     axis 180 30 90   XYZ
    dof rx ry rz
    limits (-90.0 60.0)
           (-90.0 90.0)
           (-90.0 90.0)
  end
  begin
     id 26 
     name rradius
     direction -1 -4.48987e-011 -1.55093e-027   
     length 3.64134   
     axis 180 30 90   XYZ
    dof rx
    limits (-10.0 170.0)
  end
  begin
     id 27 
     name rwrist
     direction -1 -4.4897e-011 -1.14128e-026   
     length 1.82067   
     axis 6.88575e-015 -90 -90   XYZ
    dof ry
    limits (-180.0 0.0)
  end
  begin
     id 28
     name rhand
     direction -1 -4.49021e-011 -2.28301e-026   
     length 0.734811   
     axis 1.45643e-014 -90 -90   XYZ
    dof rx rz
    limits (-90.0 90.0)
           (-45.0 45.0)
  end
  begin
     id 29
     name rfingers
     direction -1 -4.48862e-011 -4.56319e-026   
     length 0.592424   
     axis 2.91283e-014 -90 -90   XYZ
    dof rx
    limits (0.0 90.0)
  end
  begin
     id 30
     name rthumb
     direction -0.707107 -6.34978e-011 0.707107   
     length 0.850605   
     axis -90 -45 2.25915e-014   XYZ
    dof rx rz
    limits (-45.0 45.0)
           (-45.0 45.0)
  end
:hierarchy
  begin
    root lhipjoint rhipjoint lowerback
    lhipjoint lfemur
    lfemur ltibia
    ltibia lfoot
    lfoot ltoes
    rhipjoint rfemur
    rfemur rtibia
    rtibia rfoot
    rfoot rtoes
    lowerback upperback
    upperback thorax
    thorax lowerneck lclavicle rclavicle
    lowerneck upperneck
    upperneck head
    lclavicle lhumerus
    lhumerus lradius
    lradius lwrist
    lwrist lhand lthumb
    lhand lfingers
    rclavicle rhumerus
    rhumerus rradius
    rradius rwrist
    rwrist rhand rthumb
    rhand rfingers
  end

#!OML:ASF F:\VICON\USERDATA\INSTALL\rory3\rory3.ASF
:FULLY-SPECIFIED
:DEGREES
161
root -1.96953 17.3481 0.0808035 21.5481 -23.91 -0.941597
lowerback 11.7455 1.32634 -1.86625
upperback 7.92414 1.47552 1.05914
thorax 1.62851 0.600336 1.99783
lowerneck -12.2511 9.31258 -9.57003
upperneck 41.4676 17.603 -2.58975
head 16.6507 5.32228 3.33896
rclavicle -1.64991e-014 -1.92821e-014
rhumerus -19.0716 13.0038 -73.1774
rradius 62.1783
rwrist 15.9398
rhand -29.8432 2.85391
rfingers 7.12502
rthumb -3.16602 -27.1023
lclavicle -1.64991e-014 -1.92821e-014
lhumerus -17.1236 -32.604 81.9474
lradius 60.4808
lwrist -9.614
lhand -17.6789 16.6235
lfingers 7.12502
lthumb 8.58025 46.4292
rfemur -44.2677 4.73086 3.25592
rtibia 37.5772
rfoot -18.3233 -10.8521
rtoes 0.494195
lfemur -41.6996 2.12904 -8.94031
ltibia 34.1913
lfoot -9.46471 -2.52366
ltoes -24.2731
162
root -1.89139 17.3544 0.05957 21.9723 -24.5784 -1.29639
lowerback 11.8221 1.31427 -1.98521
upperback 7.89353 1.44477 1.07162
thorax 1.55387 0.580199 2.07909
lowerneck -11.9137 9.43432 -9.85269
upperneck 41.2693 17.7795 -2.69447
head 16.445 5.37155 3.32243
rclavicle 2.5842e-014 -2.41523e-014
rhumerus -19.1594 14.3645 -73.576
rradius 62.5813
rwrist 15.7807
rhand -29.4318 2.2687
rfingers 7.12502
rthumb -2.76868 -27.6931
lclavicle 2.5842e-014 -2.41523e-014
lhumerus -16.9385 -33.8617 81.737
lradius 60.1699
lwrist -9.59273
lhand -17.7163 16.2203
lfingers 7.12502
lthumb 8.54413 46.0274
rfemur -44.8444 3.42316 4.51335
rtibia 38.4295
rfoot -18.0113 -10.5452
rtoes 0.137617
lfemur -42.1566 2.41734 -8.88539
ltibia 34.5363
lfoot -9.40024 -2.06062
ltoes -23.8005
163
root -1.81616 17.3574 0.0338424 22.3964 -25.1095 -1.72177
lowerback 12.171 1.28218 -2.06018
upperback 7.7562 1.38739 1.15745
thorax 1.2211 0.551471 2.20908
lowerneck -11.7339 9.56138 -10.3199
upperneck 41.2622 17.9455 -2.49141
head 16.3095 5.40898 3.47586
rclavicle 3.97569e-014 -9.83984e-015
rhumerus -19.3876 15.8551 -73.9614
rradius 63.0898
rwrist 15.7658
rhand -29.4835 2.87777
rfingers 7.12502
rthumb -2.81861 -27.0834
lclavicle 3.97569e-014 -9.83984e-015
lhumerus -17.0772 -34.9535 81.7422
lradius 59.9985
lwrist -9.70731
lhand -18.3575 15.3339
lfingers 7.12502
lthumb 7.92526 45.1654
rfemur -45.4201 2.35796 5.75161
rtibia 39.4216
rfoot -17.659 -10.3309
rtoes 0.516228
lfemur -42.6299 2.64736 -8.73665
ltibia 34.8651
lfoot -9.3389 -1.58696
ltoes -23.9337
164
root -1.74482 17.3604 0.00959892 22.766 -25.576 -2.07898
lowerback 12.394 1.20011 -2.14603
upperback 7.70122 1.26529 1.21653
thorax 1.04755 0.488103 2.32864
lowerneck -11.6747 9.72504 -10.6752
upperneck 41.3026 18.1936 -2.36123
head 16.2488 5.47441 3.60578
rclavicle 4.62671e-014 9.59136e-015
rhumerus -19.539 17.417 -74.4124
rradius 63.4686
rwrist 15.8597
rhand -29.5079 3.42547
rfingers 7.12502
rthumb -2.84227 -26.5353
lclavicle 4.62671e-014 9.59136e-015
lhumerus -17.2334 -35.8798 81.7301
lradius 59.9181
lwrist -9.72459
lhand -18.8745 14.6559
lfingers 7.12502
lthumb 7.42626 44.5056
rfemur -45.9425 1.29606 6.91267
rtibia 40.529
rfoot -17.2394 -10.0413
rtoes 1.05604
lfemur -43.0584 2.77334 -8.59063
ltibia 35.1706
lfoot -9.29156 -1.12131
ltoes -24.0508
165
root -1.67703 17.3558 -0.0169737 23.0145 -26.0912 -2.24098
lowerback 12.641 1.14846 -2.44075
upperback 7.6814 1.16054 1.23931
thorax 0.895902 0.426701 2.52724
lowerneck -11.5485 9.86351 -11.0369
upperneck 41.1789 18.3968 -2.30637
head 16.0973 5.5318 3.68507
rclavicle -4.96573e-015 -1.4707e-014
rhumerus -19.6559 19.1989 -74.8058
rradius 63.8166
rwrist 15.4826
rhand -29.7264 3.50748
rfingers 7.12502
rthumb -3.05322 -26.4504
lclavicle -4.96573e-015 -1.4707e-014
lhumerus -17.2995 -36.8626 81.7253
lradius 59.7874
lwrist -9.50397
lhand -19.2532 14.3827
lfingers 7.12502
lthumb 7.0607 44.245
rfemur -46.4443 0.300281 7.8125
rtibia 41.7318
rfoot -16.9416 -9.90671
rtoes 1.35554
lfemur -43.4553 2.98509 -8.67976
ltibia 35.4612
lfoot -9.22729 -0.7927
ltoes -23.8506
166
root -1.61155 17.35 -0.0475348 23.3231 -26.594 -2.4281
lowerback 12.9197 1.09787 -2.73832
upperback 7.6216 1.055 1.26618
thorax 0.686612 0.366934 2.73224
lowerneck -11.3416 9.99838 -11.412
upperneck 40.8961 18.5546 -2.2538
head 15.8426 5.59077 3.74228
rclavicle -1.67973e-014 -1.25731e-014
rhumerus -19.7463 21.2163 -75.1819
rradius 64.1678
rwrist 14.8697
rhand -30.0265 3.90286
rfingers 7.12502
rthumb -3.34307 -26.0507
lclavicle -1.67973e-014 -1.25731e-014
lhumerus -17.3668 -37.8789 81.6844
lradius 59.6376
lwrist -9.32356
lhand -19.7418 13.9356
lfingers 7.12502
lthumb 6.58904 43.8131
rfemur -47.0044 -0.518651 8.64305
rtibia 42.9681
rfoot -16.5982 -10.0776
rtoes 0.511886
lfemur -43.8839 3.16888 -8.72149
ltibia 35.7108
lfoot -9.1489 -0.443809
ltoes -23.992
167
root -1.55192 17.349 -0.0755542 23.7509 -27.1134 -2.68664
lowerback 13.0175 1.04923 -3.01611
upperback 7.52736 0.958936 1.31842
thorax 0.538387 0.312801 2.95406
lowerneck -10.8461 10.1642 -11.6297
upperneck 40.4313 18.7862 -2.61208
head 15.5185 5.67707 3.59173
rclavicle -2.23633e-014 -1.86858e-014
rhumerus -19.8982 22.9474 -75.5836
rradius 64.4509
rwrist 14.8777
rhand -29.5904 4.25284
rfingers 7.12502
rthumb -2.92186 -25.7069
lclavicle -2.23633e-014 -1.86858e-014
lhumerus -17.6035 -38.797 81.7479
lradius 59.5713
lwrist -9.16918
lhand -20.1555 13.6016
lfingers 7.12502
lthumb 6.18972 43.4911
rfemur -47.6013 -1.06158 9.40441
rtibia 44.1964
rfoot -16.6005 -10.4081
rtoes 1.63099
lfemur -44.3628 3.38935 -8.67795
ltibia 35.9321
lfoot -9.05957 -0.0718798
ltoes -24.0806
168
root -1.49352 17.352 -0.103125 24.0552 -27.6669 -2.90056
lowerback 13.1571 0.997717 -3.32629
upperback 7.45375 0.852921 1.35514
thorax 0.39167 0.253152 3.17979
lowerneck -10.3697 10.3461 -11.8404
upperneck 40.0595 19.0239 -2.90541
head 15.2416 5.76602 3.47364
rclavicle -4.57205e-015 1.09332e-015
rhumerus -20.0825 24.6326 -76.0479
rradius 64.6612
rwrist 15.2157
rhand -29.0064 4.0554
rfingers 7.12502
rthumb -2.35792 -25.9113
lclavicle -4.57205e-015 1.09332e-015
lhumerus -17.91 -39.5436 81.8296
lradius 59.5118
lwrist -9.20653
lhand -20.4233 13.1385
lfingers 7.12502
lthumb 5.93119 43.0354
rfemur -48.0322 -1.57413 10.0825
rtibia 45.3786
rfoot -16.7995 -10.7927
rtoes 3.40935
lfemur -44.7026 3.70593 -8.7318
ltibia 36.1346
lfoot -8.96935 0.129
ltoes -23.8887
169
root -1.43232 17.3538 -0.126444 24.27 -28.1697 -3.07798
lowerback 13.3479 0.972774 -3.50541
upperback 7.42956 0.791972 1.35406
thorax 0.268326 0.21934 3.28659
lowerneck -10.0822 10.4221 -12.4756
upperneck 39.7365 18.9682 -2.45518
head 14.8714 5.77019 3.68034
rclavicle -8.15017e-015 -1.78906e-014
rhumerus -20.3469 26.1353 -76.5436
rradius 64.872
rwrist 15.7978
rhand -28.7312 3.60654
rfingers 7.12502
rthumb -2.09213 -26.3629
lclavicle -8.15017e-015 -1.78906e-014
lhumerus -18.0679 -40.4994 81.9406
lradius 59.3067
lwrist -9.22829
lhand -20.6464 12.7928
lfingers 7.12502
lthumb 5.71574 42.6957
rfemur -48.3553 -2.27148 10.7723
rtibia 46.528
rfoot -16.7197 -11.2129
rtoes 4.0127
lfemur -44.9897 3.93921 -8.79821
ltibia 36.3357
lfoot -8.83868 0.210776
ltoes -23.1165
170
root -1.37473 17.3543 -0.146992 24.4657 -28.7168 -3.21996
lowerback 13.4749 0.958516 -3.77554
upperback 7.45137 0.735982 1.35268
thorax 0.227434 0.182849 3.44497
lowerneck -9.8686 10.4963 -12.9779
upperneck 39.4443 18.977 -2.20712
head 14.5862 5.78309 3.80547
rclavicle -2.28602e-014 -3.55825e-014
rhumerus -20.4896 27.8269 -76.9417
rradius 65.135
rwrist 16.2414
rhand -28.4679 3.43858
rfingers 7.12502
rthumb -1.83783 -26.5333
lclavicle -2.28602e-014 -3.55825e-014
lhumerus -18.1786 -41.2412 82.0449
lradius 59.1221
lwrist -9.43413
lhand -20.5361 12.3411
lfingers 7.12502
lthumb 5.82221 42.2411
rfemur -48.6176 -2.79324 11.2754
rtibia 47.6504
rfoot -16.6419 -11.4167
rtoes 5.21205
lfemur -45.1962 4.03099 -8.81499
ltibia 36.5206
lfoot -8.78813 0.525207
ltoes -22.5358
171
root -1.31844 17.3526 -0.169572 24.6934 -29.2104 -3.31664
lowerback 13.5756 0.925349 -3.97179
upperback 7.42147 0.66435 1.31234
thorax 0.148477 0.143968 3.52284
lowerneck -9.41571 10.6015 -12.9465
upperneck 39.1641 19.124 -2.66984
head 14.4287 5.83111 3.58833
rclavicle -1.41137e-014 -1.31198e-014
rhumerus -20.6855 29.2865 -77.4819
rradius 65.3219
rwrist 16.8206
rhand -28.9992 4.94274
rfingers 7.12502
rthumb -2.35091 -25.024
lclavicle -1.41137e-014 -1.31198e-014
lhumerus -18.373 -42.0709 82.152
lradius 59.004
lwrist -9.63633
lhand -20.7409 11.973
lfingers 7.12502
lthumb 5.62448 41.8783
rfemur -48.8641 -3.15684 11.6061
rtibia 48.7224
rfoot -16.835 -11.673
rtoes 6.60937
lfemur -45.5431 4.23632 -8.92367
ltibia 36.6958
lfoot -8.66278 0.73921
ltoes -21.8219
